<svg width="512" height="512" viewBox="0 0 512 512" fill="none" xmlns="http://www.w3.org/2000/svg">
  <path
    d="M384.256 61.5127C385.516 61.6408 386.5 62.7057 386.5 64V126.761C399.599 136.823 410.25 149.729 417.642 164.513C424.848 178.925 428.767 194.744 429.136 210.833H448C454.321 210.833 460.384 213.344 464.854 217.813C469.323 222.283 471.834 228.346 471.834 234.667V277.333C471.834 283.654 469.323 289.716 464.854 294.186C460.384 298.655 454.321 301.167 448 301.167H428.443C424.957 310.799 419.395 319.554 412.142 326.808C404.888 334.061 396.132 339.623 386.5 343.109V405.333C386.5 411.654 383.989 417.717 379.52 422.187C375.05 426.656 368.988 429.167 362.667 429.167H320C313.679 429.167 307.617 426.656 303.147 422.187C298.678 417.717 296.167 411.654 296.167 405.333V365.167H237.167V405.333C237.167 411.654 234.656 417.717 230.187 422.187C225.717 426.656 219.655 429.167 213.334 429.167H170.667C164.346 429.167 158.284 426.656 153.814 422.187C149.345 417.717 146.834 411.654 146.834 405.333V342.571C133.735 332.509 123.084 319.604 115.692 304.82C108.113 289.662 104.167 272.947 104.167 256V237.167H85.334C73.3552 237.167 61.8668 232.408 53.3965 223.938C44.9262 215.467 40.1671 203.979 40.167 192V170.667C40.167 169.286 41.2863 168.167 42.667 168.167C44.0476 168.167 45.167 169.286 45.167 170.667V192C45.1671 202.653 49.399 212.87 56.9316 220.402C64.4643 227.935 74.6813 232.167 85.334 232.167H104.193C104.838 198.461 118.506 166.273 142.39 142.39C166.863 117.916 200.056 104.167 234.667 104.167H308.084L313.733 96.6338L314.508 95.6162C322.58 85.1739 332.905 76.6799 344.72 70.7725C356.916 64.6745 370.365 61.5 384 61.5L384.256 61.5127Z"
    fill="#10B981" />
</svg>
