<svg width="512" height="512" viewBox="0 0 512 512" fill="none" xmlns="http://www.w3.org/2000/svg">
  <path
    d="M384.256 61.5127C385.516 61.6408 386.5 62.7057 386.5 64V126.761C399.599 136.823 410.25 149.729 417.642 164.513C424.848 178.925 428.767 194.744 429.136 210.833H448C454.321 210.833 460.384 213.344 464.854 217.813C469.323 222.283 471.834 228.346 471.834 234.667V277.333C471.834 283.654 469.323 289.716 464.854 294.186C460.384 298.655 454.321 301.167 448 301.167H428.443C424.957 310.799 419.395 319.554 412.142 326.808C404.888 334.061 396.132 339.623 386.5 343.109V405.333C386.5 411.654 383.989 417.717 379.52 422.187C375.05 426.656 368.988 429.167 362.667 429.167H320C313.679 429.167 307.617 426.656 303.147 422.187C298.678 417.717 296.167 411.654 296.167 405.333V365.167H237.167V405.333C237.167 411.654 234.656 417.717 230.187 422.187C225.717 426.656 219.655 429.167 213.334 429.167H170.667C164.346 429.167 158.284 426.656 153.814 422.187C149.345 417.717 146.834 411.654 146.834 405.333V342.571C133.735 332.509 123.084 319.604 115.692 304.82C108.113 289.662 104.167 272.947 104.167 256V237.167H85.334C73.3552 237.167 61.8668 232.408 53.3965 223.938C45.1909 215.732 40.4679 204.694 40.1807 193.122L40.167 192V170.667C40.167 169.286 41.2863 168.167 42.667 168.167C44.0476 168.167 45.167 169.286 45.167 170.667V192L45.1797 192.998C45.4352 203.289 49.6345 213.105 56.9316 220.402C64.4643 227.935 74.6813 232.167 85.334 232.167H104.193C104.838 198.461 118.506 166.273 142.39 142.39C166.863 117.916 200.056 104.167 234.667 104.167H308.084L313.733 96.6338L314.508 95.6162C322.58 85.1739 332.905 76.6799 344.72 70.7725C356.916 64.6745 370.365 61.5 384 61.5L384.256 61.5127ZM381.5 66.5381C369.5 66.9004 357.712 69.8674 346.956 75.2451C335.814 80.8163 326.076 88.8267 318.464 98.6748L317.733 99.6338L311.334 108.167C310.862 108.796 310.121 109.167 309.334 109.167H234.667C201.382 109.167 169.461 122.389 145.925 145.925C122.389 169.461 109.167 201.382 109.167 234.667V256C109.167 272.171 112.932 288.121 120.164 302.585C127.396 317.049 137.897 329.63 150.834 339.333C151.463 339.805 151.834 340.546 151.834 341.333V405.333C151.834 410.328 153.818 415.118 157.35 418.65C160.882 422.182 165.672 424.167 170.667 424.167H213.334C218.329 424.167 223.119 422.182 226.65 418.65C230.182 415.118 232.167 410.328 232.167 405.333V362.667C232.167 361.286 233.286 360.167 234.667 360.167H298.667C300.048 360.167 301.167 361.286 301.167 362.667V405.333C301.167 410.328 303.152 415.118 306.684 418.65C310.215 422.182 315.005 424.167 320 424.167H362.667C367.662 424.167 372.453 422.182 375.984 418.65C379.516 415.118 381.5 410.328 381.5 405.333V341.333C381.5 340.257 382.19 339.301 383.211 338.961C392.78 335.775 401.475 330.404 408.606 323.272C415.738 316.141 421.109 307.446 424.295 297.877L424.366 297.689C424.755 296.772 425.658 296.167 426.667 296.167H448C452.995 296.167 457.786 294.182 461.317 290.65C464.849 287.118 466.834 282.328 466.834 277.333V234.667C466.834 229.672 464.849 224.882 461.317 221.35C457.786 217.818 452.995 215.833 448 215.833H426.667C425.286 215.833 424.167 214.714 424.167 213.333C424.167 197.162 420.402 181.213 413.17 166.749C405.938 152.285 395.437 139.703 382.5 130C381.871 129.528 381.5 128.787 381.5 128V66.5381Z"
    fill="#10B981" />
</svg>
